<?xml version="1.0" encoding="utf-8"?><!-- Uploaded to: SVG Repo, www.svgrepo.com, Generator: SVG Repo Mixer Tools -->
<svg fill="#000000" width="800px" height="800px" viewBox="0 0 24 24" id="sign-out-left-3" data-name="Flat Color" xmlns="http://www.w3.org/2000/svg" class="icon flat-color"><path id="secondary" d="M17,11H5.41l1.3-1.29A1,1,0,0,0,5.29,8.29l-3,3a1,1,0,0,0,0,1.42l3,3a1,1,0,0,0,1.42,0,1,1,0,0,0,0-1.42L5.41,13H17a1,1,0,0,0,0-2Z" style="fill: rgb(44, 169, 188);"></path><path id="primary" d="M20,21H17a1,1,0,0,1,0-2h3V5H17a1,1,0,0,1,0-2h3a2,2,0,0,1,2,2V19A2,2,0,0,1,20,21Z" style="fill: rgb(0, 0, 0);"></path></svg>